<svg viewBox="0 0 50 50" fill="#fff" xmlns="http://www.w3.org/2000/svg">
  <path transform="translate(-105, -88)" d="M133.08,119.82 C130.15,123.44 126.73,126.35 122.04,127.37 C121.22,127.55 120.37,127.59 119.83,127.66 C117.40,127.54 115.33,127.20 113.52,125.95 C109.78,123.36 110.15,118.42 114.25,116.45 C117.42,114.93 120.74,115.02 124.07,115.78 C127.17,116.49 130.03,117.84 132.89,119.19 C133.21,119.34 133.39,119.45 133.08,119.82 M158.62,122.58 C152.76,121.14 147.12,119.02 141.45,116.91 C143.38,113.49 144.80,109.93 145.80,106.18 C145.98,105.50 145.80,105.42 145.31,105.41 L145.31,105.39 L135.61,105.39 L135.26,105.39 L135.26,101.60 L135.62,101.60 L148.40,101.60 L148.40,99.33 L135.50,99.33 L135.26,99.33 L135.26,93.01 L134.84,93.01 C134.76,93.00 134.66,92.99 134.56,93.00 C134.26,93.00 133.97,93.01 133.68,93.01 L130.97,93.01 L130.97,93.01 C130.69,93.01 130.40,93.01 130.12,93.00 C129.45,92.99 129.10,93.23 128.97,93.72 L128.97,99.33 L115.48,99.33 L115.48,101.60 L128.51,101.60 L128.97,101.60 L128.97,105.39 L118.04,105.39 L118.04,105.80 C117.98,105.97 117.97,106.20 117.97,106.49 C117.98,106.77 117.98,107.01 118.04,107.19 L118.04,107.67 L138.99,107.67 C139.18,107.78 139.16,108.02 139.00,108.48 C138.29,110.50 137.51,112.48 136.57,114.40 C136.27,114.99 136.00,115.04 135.40,114.85 C131.56,113.60 127.68,112.50 123.66,111.97 C119.84,111.46 116.16,111.71 112.92,114.03 C107.88,117.64 107.25,125.73 113.65,129.49 C117.33,131.65 121.31,131.69 125.31,130.63 C130.24,129.33 134.12,126.39 137.40,122.58 C137.91,121.99 138.25,121.84 139.01,122.20 C145.44,125.23 151.98,128.01 158.55,130.75 C158.73,130.82 158.88,130.90 159,131.00 L159,122.63 C158.90,122.63 158.78,122.62 158.62,122.59" />
</svg>
