<?xml version="1.0" standalone="no"?><!DOCTYPE svg PUBLIC "-//W3C//DTD SVG 1.1//EN" "http://www.w3.org/Graphics/SVG/1.1/DTD/svg11.dtd"><svg t="1497077284542" class="icon" style="" viewBox="0 0 1024 1024" version="1.1" xmlns="http://www.w3.org/2000/svg" p-id="2122" xmlns:xlink="http://www.w3.org/1999/xlink" width="32" height="32"><defs><style type="text/css"></style></defs><path d="M344.169085 860.663958c0-206.428489 0-412.854932 0-620.016109 157.579945 0 314.830385 0 472.081849 0 0 206.672036 0 413.344073 0 620.016109C658.889977 860.663958 501.529019 860.663958 344.169085 860.663958zM783.245216 827.777967c0-184.997388 0-369.59057 0-554.072211-135.659703 0-270.946922 0-406.167626 0 0 184.888917 0 369.354186 0 554.072211C512.513188 827.777967 647.672494 827.777967 783.245216 827.777967z" p-id="2123"></path><path d="M677.019893 140.575666c0 28.060079 0 56.120159 0 84.511789-10.961656 0-21.531386 0-32.508391 0 0-17.160845 0-34.131355 0-51.488675-135.681192 0-270.959202 0-406.589229 0 0 184.54611 0 369.128035 0 554.302455 29.474288 0 58.899458 0 88.580454 0 0 11.031241 0 21.473057 0 32.689517-40.535205 0-81.049944 0-121.564683 0 0-206.567659 0-413.137365 0-620.015086C362.296955 140.575666 519.657912 140.575666 677.019893 140.575666z" p-id="2124"></path><path d="M429.417655 348.556511c100.69947 0 201.034643 0 301.678854 0 0 10.654664 0 21.096481 0 31.975249-100.344383 0-200.808492 0-301.678854 0C429.417655 370.156458 429.417655 359.587752 429.417655 348.556511z" p-id="2125"></path><path d="M429.279508 458.926224c0-10.870582 0-21.310352 0-32.010041 100.603279 0 200.939475 0 301.700343 0 0 10.503215 0 21.073968 0 32.010041C630.600677 458.926224 530.135544 458.926224 429.279508 458.926224z" p-id="2126"></path><path d="M429.269275 535.056112c0-10.835789 0-21.275559 0-31.987528 100.592023 0 200.928219 0 301.700343 0 0 10.470469 0 21.042245 0 31.987528C630.622166 535.056112 530.158057 535.056112 429.269275 535.056112z" p-id="2127"></path><path d="M429.277462 611.207489c0-10.862395 0-21.302165 0-32.004925 100.600209 0 200.936405 0 301.700343 0 0 10.498098 0 21.067828 0 32.004925C630.60477 611.207489 530.139637 611.207489 429.277462 611.207489z" p-id="2128"></path><path d="M731.153814 655.454226c0 10.824533 0 21.264303 0 31.979342-100.587929 0-200.924125 0-301.700343 0 0-10.458189 0-21.028942 0-31.979342C529.788643 655.454226 630.252753 655.454226 731.153814 655.454226z" p-id="2129"></path><path d="M429.269275 763.483638c0-10.834766 0-21.274536 0-31.986505 100.590999 0 200.927195 0 301.701366 0 0 10.467399 0 21.040199 0 31.986505C630.623189 763.483638 530.15908 763.483638 429.269275 763.483638z" p-id="2130"></path></svg>