<svg viewBox="0 0 27 26" fill="#323232" xmlns="http://www.w3.org/2000/svg">
  <path d="M4.81,13.57 L0,13.57 C0.13,16.68 1.37,19.64 3.48,21.93 C4.42,21.25 5.42,20.67 6.46,20.21 C5.45,18.13 4.89,15.89 4.81,13.57 M6.97,21.18 C6.03,21.59 5.12,22.11 4.27,22.71 C6.19,24.48 8.55,25.6 11.12,26 C9.45,24.68 8.02,23.02 6.97,21.18 M7.48,19.8 C9.11,19.21 10.82,18.88 12.57,18.82 L12.57,13.57 L5.91,13.57 C6,15.75 6.51,17.84 7.48,19.8 M12.57,25.72 L12.57,19.91 C11,20 9.45,20.26 8,20.78 C9.14,22.73 10.71,24.43 12.57,25.72 M8,5.22 C9.46,5.74 11,6.03 12.57,6.09 L12.56,0.28 C10.71,1.57 9.13,3.27 7.99,5.22 M6.46,5.78 C5.42,5.32 4.42,4.74 3.48,4.07 C1.36,6.36 0.13,9.31 0,12.42 L4.81,12.42 C4.89,10.10 5.44,7.87 6.46,5.79 M5.91,12.43 L12.57,12.42 L12.57,7.17 C10.81,7.11 9.10,6.78 7.47,6.19 C6.51,8.15 5.98,10.24 5.90,12.42 M11.12,0 C8.55,0.39 6.19,1.52 4.26,3.29 C5.12,3.89 6.03,4.40 6.97,4.81 C8.02,2.97 9.45,1.32 11.12,0 M20.37,13.57 L13.71,13.57 L13.71,18.82 C15.46,18.88 17.17,19.21 18.80,19.80 C19.76,17.84 20.29,15.75 20.37,13.57 M18.28,20.77 C16.82,20.26 15.28,19.97 13.71,19.91 L13.71,25.71 C15.56,24.42 17.14,22.72 18.28,20.77 M19.81,20.21 C20.85,20.67 21.85,21.25 22.79,21.92 C24.91,19.63 26.14,16.68 26.28,13.57 L21.46,13.57 C21.38,15.89 20.83,18.12 19.81,20.21 M19.30,4.81 C20.24,4.40 21.15,3.89 22.01,3.29 C20.08,1.52 17.72,0.39 15.15,0 C16.83,1.32 18.25,2.97 19.30,4.81 M15.15,26 C17.72,25.60 20.08,24.47 22.01,22.70 C21.15,22.10 20.24,21.59 19.30,21.18 C18.25,23.02 16.82,24.67 15.15,26 M21.46,12.42 L26.28,12.42 C26.14,9.31 24.91,6.36 22.79,4.07 C21.86,4.74 20.85,5.32 19.81,5.78 C20.83,7.87 21.38,10.10 21.46,12.42 M13.71,0.28 L13.71,6.09 C15.28,6.03 16.82,5.74 18.28,5.22 C17.14,3.27 15.57,1.57 13.71,0.28 M18.8,6.2 C17.17,6.79 15.46,7.12 13.72,7.18 L13.72,12.43 L20.37,12.43 C20.29,10.25 19.77,8.15 18.8,6.2" />
</svg>
