<svg viewBox="0 0 34 23" fill="#111" xmlns="http://www.w3.org/2000/svg">
  <path d="M31.21,18.72 C31.21,19.79 30.44,20.62 29.53,20.62 L27.86,20.62 L27.86,16.95 L27.86,14.94 L27.86,14.69 L27.86,12.50 L29.53,12.50 C30.44,12.50 31.21,13.33 31.21,14.39 L31.21,18.72 Z M5.67,20.62 L4.00,20.62 C3.10,20.62 2.33,19.79 2.33,18.72 L2.33,14.39 C2.33,13.33 3.10,12.50 4.00,12.50 L5.67,12.50 L5.67,20.62 Z M29.53,10.43 L27.77,10.43 C27.09,4.56 22.44,0.00 16.77,0.00 C11.10,0.00 6.45,4.56 5.76,10.43 L4.00,10.43 C1.92,10.43 0.27,12.22 0.27,14.39 L0.27,18.72 C0.27,20.89 1.92,22.68 4.00,22.68 L6.70,22.68 C7.27,22.68 7.73,22.22 7.73,21.65 L7.73,16.95 L7.73,16.95 L7.73,16.12 L7.73,14.35 C7.73,12.87 7.73,11.78 7.73,11.77 C7.82,6.36 11.85,2.06 16.77,2.06 C21.70,2.06 25.74,6.39 25.80,11.81 C25.80,11.82 25.80,13.00 25.80,14.37 L25.80,14.69 L25.80,21.65 C25.80,22.22 26.26,22.68 26.83,22.68 L29.53,22.68 C31.62,22.68 33.27,20.89 33.27,18.72 L33.27,14.39 C33.27,12.22 31.62,10.43 29.53,10.43 L29.53,10.43 Z" />
</svg>
