<svg viewBox="0 0 38 42" fill="#111" xmlns="http://www.w3.org/2000/svg">
  <path d="M13.68,40.32 C13.68,40.87 13.23,41.31 12.68,41.31 L3.00,41.31 C1.34,41.31 0,39.97 0,38.31 L0,17.35 C0,16.52 0.46,15.50 1.09,14.95 L17.59,0.52 C18.37,-0.15 19.61,-0.16 20.40,0.52 L36.90,14.95 C37.53,15.49 38,16.52 38,17.35 L38,38.31 C38,39.97 36.66,41.31 35.00,41.31 L25.40,41.31 C24.85,41.31 24.40,40.87 24.40,40.31 L24.39,32.56 L13.71,32.56 L13.68,40.32 Z M35.00,39.31 C35.55,39.31 36,38.87 36,38.31 L36,17.35 C36,17.10 35.78,16.62 35.59,16.45 L19.09,2.03 C19.05,2.00 18.94,2.00 18.90,2.03 L2.40,16.45 C2.21,16.62 2,17.10 2,17.35 L2,38.31 C2,38.86 2.44,39.31 3.00,39.31 L11.69,39.31 L11.71,31.55 C11.71,31.00 12.16,30.56 12.71,30.56 L25.38,30.56 C25.94,30.56 26.38,31.00 26.38,31.55 L26.40,39.31 L35.00,39.31 Z" />
</svg>
