<svg viewBox="0 0 27 22" fill="#fa144c" xmlns="http://www.w3.org/2000/svg">
  <path d="M3.91,1.4 C4.13,0.89 3.9,0.3 3.4,0.08 C2.89,-0.13 2.30,0.09 2.08,0.59 L0.08,5.16 C0.02,5.29 0,5.43 0,5.56 C0,8.32 2.24,10.55 5.00,10.55 C7.77,10.55 10.01,8.32 10.01,5.56 C10.01,5.01 9.56,4.56 9.01,4.56 C8.46,4.56 8.01,5.01 8.01,5.56 C8.01,7.21 6.67,8.55 5.00,8.55 C3.41,8.55 2.10,7.31 2.00,5.76 L3.91,1.40 Z M8.01,5.56 C8.01,8.32 10.25,10.55 13.02,10.55 C15.78,10.55 18.03,8.32 18.03,5.56 C18.03,5.01 17.58,4.56 17.03,4.56 C16.47,4.56 16.03,5.01 16.03,5.56 C16.03,7.21 14.68,8.55 13.02,8.55 C11.36,8.55 10.01,7.21 10.01,5.56 C10.01,5.01 9.56,4.56 9.01,4.56 C8.46,4.56 8.01,5.01 8.01,5.56 Z M24,9.58 C25.24,8.68 26.04,7.21 26.04,5.56 C26.04,5.43 26.01,5.29 25.96,5.16 L23.96,0.59 C23.80,0.23 23.44,1.77635684e-15 23.04,1.77635684e-15 L3.5,1.77635684e-15 C2.94,1.77635684e-15 2.5,0.44 2.5,1 C2.5,1.55 2.94,2 3.5,2 L22.39,2 L24.04,5.76 C23.93,7.31 22.63,8.55 21.03,8.55 C19.37,8.55 18.03,7.21 18.03,5.56 C18.03,5.01 17.58,4.56 17.03,4.56 C16.47,4.56 16.03,5.01 16.03,5.56 C16.03,8.32 18.27,10.55 21.03,10.55 C21.36,10.55 21.68,10.51 22,10.45 L22,18.20 C22,19.37 21.61,19.87 21.09,19.87 L4.90,19.87 C4.41,19.87 4,19.43 4,18.87 L4,9.19 L2,9.19 L2,18.87 C2,20.52 3.29,21.87 4.90,21.87 L21.09,21.87 C22.84,21.87 24,20.38 24,18.20 L24,9.58 Z" />
</svg>
