<svg viewBox="0 0 90 43" fill="#000" fill-rule="evenodd" xmlns="http://www.w3.org/2000/svg">
  <path d="M53.74,5.33 L60.6,5.33 L60.6,2.77 L53.74,2.77 C52.2,2.77 50.95,1.53 50.95,0 L48.38,0 C48.38,2.93 50.78,5.33 53.74,5.33 L53.74,5.33 Z M48.95,13.85 L54.09,13.85 L54.09,19.82 L48.95,19.82 L48.95,22.37 L54.09,22.38 L54.09,27.59 C54.09,37.19 49.24,40.09 49.04,40.2 L50.29,42.43 C50.55,42.29 56.66,38.79 56.66,27.59 L56.66,22.37 L61.38,22.37 L61.38,19.81 L56.66,19.81 L56.66,13.85 L61.38,13.85 L61.38,11.29 L48.95,11.29 L48.95,13.85 Z M87.3,19.81 L78.79,19.81 L78.79,13.85 L86.93,13.85 C87.12,13.86 87.3,13.91 87.3,14.43 L87.3,19.81 Z M78.79,28.33 L87.3,28.33 L87.3,22.37 L78.79,22.37 L78.79,28.33 Z M76.22,19.81 L67.72,19.81 L67.72,15.04 C67.72,15.01 67.72,14.98 67.72,14.95 C67.71,14.87 67.74,14.33 67.99,14.06 C68.04,14.01 68.19,13.85 68.68,13.85 L76.22,13.85 L76.22,19.81 Z M67.72,28.33 L76.22,28.33 L76.22,22.37 L67.72,22.37 L67.72,28.33 Z M88.99,12.12 C88.17,11.32 87.15,11.29 86.96,11.29 L78.79,11.29 L78.79,5.32 L84.47,5.32 C87.43,5.32 89.83,2.93 89.83,0 L87.26,0 C87.26,1.52 86.01,2.77 84.47,2.77 L78.79,2.77 L78.79,0 L76.22,0 L76.22,2.77 L66.47,2.77 L66.47,5.32 L76.22,5.32 L76.22,11.29 L68.68,11.29 C67.35,11.29 66.55,11.84 66.11,12.31 C65.14,13.34 65.13,14.74 65.15,15.07 L65.15,41.31 L67.72,41.31 L67.72,30.89 L76.22,30.89 L76.22,41.31 L78.79,41.31 L78.79,30.89 L87.3,30.89 L87.3,41.31 L89.87,41.31 L89.87,14.43 C89.87,13.24 89.39,12.52 88.99,12.12 L88.99,12.12 Z M23.16,30.89 L37.72,30.89 L37.72,28.33 L17.30,28.33 C17.34,28.19 17.37,28.04 17.4,27.89 L18.46,22.37 L37.72,22.37 L37.72,19.82 L18.96,19.82 L20.10,13.85 L37.72,13.85 L37.72,11.29 L20.59,11.29 L21.74,5.32 L25.71,5.32 L37.72,5.32 L37.72,2.77 L30.29,2.77 C30.79,1.96 31.07,1.01 31.07,0 L28.50,0 C28.50,1.52 27.25,2.77 25.71,2.77 L18.86,2.77 L18.32,2.77 L11.46,2.77 C9.93,2.77 8.68,1.52 8.68,0 L6.10,0 C6.10,1.01 6.39,1.96 6.89,2.77 L0,2.77 L0,5.32 L11.46,5.32 L18.32,5.32 L18.86,5.32 L19.13,5.32 L17.98,11.29 L0,11.29 L0,13.85 L17.48,13.85 L16.33,19.81 L0,19.81 L0,22.37 L15.84,22.37 L14.87,27.40 C14.81,27.72 14.73,28.03 14.65,28.33 L0,28.33 L0,30.89 C4.10,30.89 8.73,30.89 13.33,31.41 C10.73,35.84 5.53,38.92 0,38.92 L0,41.47 C6.80,41.47 13.17,37.45 16.04,31.79 C19.14,32.29 22.17,33.09 24.95,34.33 C31.87,37.42 36.89,41.18 36.94,41.22 L38.49,39.18 C38.29,39.02 33.21,35.22 26.01,32 C25.08,31.59 24.13,31.22 23.17,30.9 L23.17,30.9 Z" />
</svg>
