<svg viewBox="0 0 18 26" xmlns="http://www.w3.org/2000/svg">
  <defs>
    <polygon id="p" points="17.96 25.17 0 25.17 0 12.58 0 0 17.96 0" />
  </defs>
  <mask fill="#fff">
    <use xlink:href="#p" />
  </mask>
  <path fill="#333" d="M17.96,10.49 C17.96,10.49 17.96,10.49 17.96,10.48 C17.96,10.10 17.66,9.79 17.28,9.79 L10.52,9.79 L11.74,0.76 C11.79,0.51 11.64,0.25 11.39,0.12 C11.15,-0.04 10.84,-0.04 10.63,0.13 L0.23,12.72 C0.15,12.79 0.09,12.88 0.06,12.98 C0.02,13.07 0,13.17 0,13.28 C0,13.66 0.30,13.97 0.68,13.97 L7.53,13.97 L6.21,24.18 C6.21,24.22 6.20,24.25 6.20,24.28 C6.14,24.51 6.20,24.77 6.38,24.96 C6.65,25.23 7.07,25.24 7.32,24.99 L17.78,10.98 C17.91,10.85 17.97,10.67 17.96,10.5" mask="url(#mask-2)" />
</svg>
