<svg viewBox="0 0 52 52" xmlns="http://www.w3.org/2000/svg">
  <ellipse fill="#111" fill-opacity="0.8" cx="26" cy="26" rx="26" ry="26" />
  <polygon transform="translate(10, 14)" fill="#fff" points="16.23 0.31 7.85 6.20 0.99 6.20 0.99 18.58 7.85 18.58 16.23 24.47 18.17 24.47 18.17 0.32" />
  <g fill="#fff">
    <path d="M32.20,20.60 C32.24,20.65 32.32,20.77 32.43,20.95 C32.62,21.26 32.82,21.62 33.00,22.04 C34.24,24.87 34.24,28.05 32.15,31.34 L33.84,32.41 C36.32,28.50 36.32,24.64 34.83,21.23 C34.45,20.37 34.07,19.75 33.80,19.39 L32.20,20.60 Z" />
    <path d="M36.17,18.55 C36.22,18.62 36.32,18.79 36.45,19.03 C36.68,19.46 36.91,19.96 37.12,20.52 C38.61,24.41 38.61,28.82 36.12,33.40 L37.87,34.35 C40.67,29.21 40.67,24.20 38.99,19.81 C38.57,18.70 38.13,17.89 37.83,17.44 L36.17,18.55 Z" />
  </g>
</svg>
