<svg viewBox="0 0 33 36" xmlns="http://www.w3.org/2000/svg">
  <defs>
    <polygon id="p" points="32.92 0.42 32.92 36 16.46 36 0.00 36 0.00 0.42 32.92 0.43" />
  </defs>
  <g fill="#fff">
    <g transform="translate(0, 0.57)">
      <mask id="m">
        <use xlink:href="#p" />
      </mask>
      <path d="M16.46,34 C13.06,34 2.00,33.26 2.00,23.81 C2.00,19.11 4.88,14.44 9.34,11.92 C9.61,11.77 9.80,11.49 9.84,11.18 C9.88,10.87 9.77,10.55 9.54,10.33 C6.62,7.52 5.81,5.75 5.98,5.29 C6.04,5.14 6.08,5.07 6.08,5.05 C6.24,5.03 6.71,5.17 7.06,5.28 C8.01,5.56 9.31,5.96 10.90,5.62 C12.79,5.22 13.79,4.16 14.53,3.39 C15.14,2.75 15.46,2.44 15.98,2.43 C16.50,2.38 16.89,2.79 17.56,3.50 C18.29,4.30 19.21,5.29 20.78,5.62 C22.11,5.90 23.50,5.41 24.61,5.02 C25.16,4.83 25.97,4.55 26.15,4.57 C26.15,4.57 26.20,4.63 26.23,4.82 C26.36,5.53 25.51,7.31 22.69,9.95 C22.45,10.18 22.34,10.50 22.38,10.83 C22.43,11.15 22.63,11.43 22.92,11.58 C27.78,14.01 30.92,18.81 30.92,23.81 C30.92,33.26 19.85,34 16.46,34 M25.03,10.46 C27.42,8.02 28.48,6.01 28.20,4.46 C28.06,3.71 27.73,3.18 27.20,2.87 C26.26,2.33 25.14,2.72 23.95,3.14 C23.03,3.46 21.98,3.83 21.20,3.66 C20.25,3.46 19.65,2.82 19.02,2.14 C18.26,1.32 17.39,0.40 15.94,0.43 C14.57,0.45 13.78,1.28 13.08,2.01 C12.40,2.72 11.77,3.39 10.49,3.66 C9.39,3.89 8.46,3.61 7.64,3.36 C6.60,3.05 4.88,2.53 4.10,4.59 C3.90,5.15 3.29,6.76 7.25,10.87 C2.80,13.85 0.00,18.80 0.00,23.81 C0.00,31.33 6.30,36 16.46,36 C26.61,36 32.92,31.33 32.92,23.81 C32.92,18.49 29.86,13.39 25.03,10.46" fill="#111" mask="url(#m)" />
    </g>
    <path d="M19.11,28.16 C18.57,28.59 17.83,28.85 16.93,28.96 L16.93,23.04 L17.75,23.32 C19.30,23.93 20.05,24.76 20.05,25.85 C20.05,26.85 19.74,27.61 19.11,28.16 L19.11,28.16 Z M14.73,20.35 C13.17,19.72 12.41,18.91 12.41,17.89 C12.41,16.86 12.74,16.11 13.42,15.60 C13.85,15.26 14.42,15.05 15.14,14.96 L15.14,20.50 L14.73,20.35 Z M19.33,22.02 L16.93,21.16 L16.93,14.98 C17.58,15.09 18.12,15.33 18.57,15.71 C19.23,16.28 19.65,17.14 19.82,18.25 L19.85,18.46 L21.74,18.46 L21.70,18.18 C21.45,16.53 20.85,15.28 19.91,14.48 C19.11,13.78 18.10,13.38 16.93,13.25 L16.93,11.32 L16.75,11.32 L15.31,11.32 L15.14,11.32 L15.14,13.21 C13.94,13.32 12.93,13.68 12.14,14.31 C11.06,15.13 10.50,16.34 10.50,17.89 C10.50,19.57 11.35,20.80 13.13,21.69 L15.14,22.40 L15.14,28.92 C14.33,28.78 13.71,28.49 13.26,28.00 C12.65,27.35 12.26,26.30 12.11,24.90 L12.08,24.68 L10.18,24.68 L10.21,24.95 C10.40,26.80 10.95,28.22 11.86,29.17 C12.64,30.02 13.75,30.52 15.14,30.68 L15.14,32.75 L15.31,32.75 L16.75,32.75 L16.93,32.75 L16.93,30.71 C18.32,30.60 19.41,30.25 20.24,29.64 C21.39,28.78 21.97,27.49 21.97,25.80 C21.97,24.17 21.09,22.91 19.33,22.02 L19.33,22.02 Z" fill="#111" />
  </g>
</svg>
