<svg viewBox="0 0 48 40" xmlns="http://www.w3.org/2000/svg">
  <g fill="#00d00f">
    <path d="M34.57,13.00 C34.00,12.94 33.41,12.91 32.82,12.91 C24.53,12.91 17.82,18.57 17.82,25.54 C17.82,26.79 18.04,28.01 18.44,29.15 C18.08,29.17 17.71,29.18 17.34,29.18 C15.41,29.18 13.08,28.92 11.36,28.43 C10.48,28.19 6.26,31.71 5.46,31.36 C4.61,30.98 7.65,26.72 6.89,26.24 C2.70,23.57 0,19.35 0,14.59 C0,6.53 7.76,0 17.34,0 C26.27,0 33.63,5.69 34.57,13.00 Z M24.32,11.96 C25.52,11.96 26.49,10.99 26.49,9.80 C26.49,8.61 25.52,7.65 24.32,7.65 C23.12,7.65 22.15,8.61 22.15,9.80 C22.15,10.99 23.12,11.96 24.32,11.96 Z M10.83,11.96 C12.03,11.96 13.00,10.99 13.00,9.80 C13.00,8.61 12.03,7.65 10.83,7.65 C9.64,7.65 8.67,8.61 8.67,9.80 C8.67,10.99 9.64,11.96 10.83,11.96 Z" />
    <path d="M32.99,37.79 C31.42,37.79 29.51,37.57 28.09,37.17 C27.37,36.97 23.92,39.86 23.26,39.57 C22.56,39.26 25.05,35.77 24.43,35.37 C21.00,33.19 18.78,29.73 18.78,25.83 C18.78,19.22 25.14,13.87 32.99,13.87 C40.84,13.87 47.20,19.22 47.20,25.83 C47.20,32.43 40.84,37.79 32.99,37.79 Z M38.71,23.67 C39.69,23.67 40.49,22.88 40.49,21.91 C40.49,20.93 39.69,20.14 38.71,20.14 C37.73,20.14 36.94,20.93 36.94,21.91 C36.94,22.88 37.73,23.67 38.71,23.67 Z M27.66,23.67 C28.64,23.67 29.44,22.88 29.44,21.91 C29.44,20.93 28.64,20.14 27.66,20.14 C26.68,20.14 25.89,20.93 25.89,21.91 C25.89,22.88 26.68,23.67 27.66,23.67 Z" />
  </g>
</svg>
